<?xml version="1.0" standalone="no"?>
<!DOCTYPE svg PUBLIC "-//W3C//DTD SVG 20010904//EN"
 "http://www.w3.org/TR/2001/REC-SVG-20010904/DTD/svg10.dtd">
<svg version="1.0" xmlns="http://www.w3.org/2000/svg"
 width="900.000000pt" height="600.000000pt" viewBox="0 0 900.000000 600.000000"
 preserveAspectRatio="xMidYMid meet">

<g transform="translate(0.000000,600.000000) scale(0.100000,-0.100000)"
fill="#000000" stroke="none">
<path d="M3681 5730 c-149 -15 -315 -45 -764 -141 -632 -134 -799 -176 -986
-246 -316 -118 -461 -256 -461 -441 0 -152 60 -272 365 -732 251 -377 339
-531 419 -726 165 -404 144 -721 -73 -1154 -79 -156 -139 -253 -364 -588 -200
-298 -241 -366 -283 -467 -85 -207 1 -317 308 -395 124 -31 296 -56 638 -95
573 -65 778 -116 1261 -311 324 -130 450 -166 584 -167 202 -2 322 73 680 423
472 460 603 534 1265 709 319 84 399 109 534 166 345 144 584 392 692 715 26
78 28 98 29 235 0 138 -2 156 -27 223 -42 116 -85 179 -203 298 -136 137 -308
254 -546 371 -221 109 -404 181 -792 312 -356 120 -479 174 -596 261 -181 134
-275 280 -516 805 -191 416 -304 604 -448 742 -142 136 -293 196 -522 207 -55
2 -142 0 -194 -4z"/>
</g>
</svg>
